<?xml version="1.0" standalone="no"?>
<!DOCTYPE svg PUBLIC "-//W3C//DTD SVG 20010904//EN"
 "http://www.w3.org/TR/2001/REC-SVG-20010904/DTD/svg10.dtd">
<svg version="1.0" xmlns="http://www.w3.org/2000/svg"
 width="512.000000pt" height="512.000000pt" viewBox="0 0 512.000000 512.000000"
 preserveAspectRatio="xMidYMid meet">

<g transform="translate(0.000000,512.000000) scale(0.100000,-0.100000)"
fill="#000000" stroke="none">
<path d="M4180 3834 c-271 -71 -459 -321 -460 -611 l0 -73 -570 0 -569 0 -3
281 -3 281 -28 24 c-34 29 -83 31 -211 9 -313 -55 -584 -259 -713 -537 l-27
-57 -691 -3 -691 -3 -59 -30 c-71 -36 -118 -94 -142 -173 -15 -53 -15 -64 0
-154 19 -113 83 -311 133 -409 184 -367 487 -642 861 -783 l71 -27 -14 -34
c-19 -45 -8 -71 53 -124 58 -52 158 -104 240 -125 71 -18 209 -21 285 -5 88
18 211 83 282 149 57 54 68 60 106 60 38 0 49 -6 107 -60 114 -107 251 -160
413 -160 111 0 191 19 283 67 81 43 167 117 167 144 0 23 -2 22 113 43 207 38
442 139 617 263 119 86 286 252 367 366 34 48 87 137 118 197 l56 110 163 0
c142 0 175 3 244 23 104 30 180 76 263 158 78 77 141 194 164 304 21 102 19
139 -9 172 l-24 28 -331 3 -331 3 0 328 0 328 -23 21 c-19 18 -35 22 -88 21
-35 0 -89 -7 -119 -15z m-2896 -1611 c-4 -16 -13 -42 -21 -60 -19 -48 -16 -81
12 -108 30 -30 73 -32 107 -5 29 22 64 98 74 159 5 29 11 41 24 41 15 0 16 -7
9 -55 -4 -31 -21 -84 -37 -119 -34 -72 -33 -106 6 -136 37 -30 79 -26 112 10
38 40 79 149 88 230 5 50 11 65 25 68 38 7 14 -131 -44 -257 -46 -98 -48 -123
-14 -156 26 -27 60 -32 100 -13 54 24 144 263 145 381 l0 47 1046 0 c833 0
1044 -3 1038 -12 -25 -43 -147 -176 -215 -234 -219 -187 -475 -300 -758 -334
l-93 -12 -257 255 c-302 300 -306 302 -456 302 -90 0 -105 -3 -153 -28 -71
-37 -128 -97 -160 -166 -48 -103 -39 -251 20 -334 l21 -29 -269 5 c-222 4
-285 8 -359 25 -303 69 -573 225 -764 442 -38 43 -74 88 -81 99 l-11 21 436 0
435 0 -6 -27z"/>
</g>
</svg>
